<mxfile host="app.diagrams.net" modified="2023-04-09T13:30:01.797Z" agent="Mozilla/5.0 (Windows NT 10.0; Win64; x64) AppleWebKit/537.36 (KHTML, like Gecko) Chrome/111.0.0.0 Safari/537.36" etag="MgpY5NaqqlXbY4gvHi_q" version="21.1.2" type="github">
  <diagram name="Page-1" id="KjnRto6zI1EsRfvvsknL">
    <mxGraphModel dx="1290" dy="541" grid="1" gridSize="10" guides="1" tooltips="1" connect="1" arrows="1" fold="1" page="1" pageScale="1" pageWidth="850" pageHeight="1100" math="0" shadow="0">
      <root>
        <mxCell id="0" />
        <mxCell id="1" parent="0" />
        <mxCell id="2B2SoALKFqMW8s8ROQ0Y-1" value="" style="ellipse;whiteSpace=wrap;html=1;aspect=fixed;" vertex="1" parent="1">
          <mxGeometry x="410" y="220" width="80" height="80" as="geometry" />
        </mxCell>
        <mxCell id="2B2SoALKFqMW8s8ROQ0Y-2" value="" style="rounded=0;whiteSpace=wrap;html=1;" vertex="1" parent="1">
          <mxGeometry x="70" y="70" width="120" height="60" as="geometry" />
        </mxCell>
        <mxCell id="2B2SoALKFqMW8s8ROQ0Y-3" value="" style="rounded=0;whiteSpace=wrap;html=1;" vertex="1" parent="1">
          <mxGeometry x="720" y="130" width="120" height="60" as="geometry" />
        </mxCell>
        <mxCell id="2B2SoALKFqMW8s8ROQ0Y-4" value="" style="rounded=0;whiteSpace=wrap;html=1;" vertex="1" parent="1">
          <mxGeometry x="100" y="230" width="120" height="60" as="geometry" />
        </mxCell>
        <mxCell id="2B2SoALKFqMW8s8ROQ0Y-5" value="" style="rounded=0;whiteSpace=wrap;html=1;" vertex="1" parent="1">
          <mxGeometry x="470" y="480" width="120" height="60" as="geometry" />
        </mxCell>
      </root>
    </mxGraphModel>
  </diagram>
</mxfile>
